<?xml version="1.0" encoding="UTF-8"?>
<!DOCTYPE svg PUBLIC "-//W3C//DTD SVG 1.1//EN" "http://www.w3.org/Graphics/SVG/1.1/DTD/svg11.dtd">
<!-- Creator: CorelDRAW (Versión de evaluación) -->
<svg xmlns="http://www.w3.org/2000/svg" xml:space="preserve" width="50px" height="50px" version="1.1" style="shape-rendering:geometricPrecision; text-rendering:geometricPrecision; image-rendering:optimizeQuality; fill-rule:evenodd; clip-rule:evenodd"
viewBox="0 0 212 149.9"
 xmlns:xlink="http://www.w3.org/1999/xlink"
 xmlns:xodm="http://www.corel.com/coreldraw/odm/2003">
 <defs>
  <style type="text/css">
   <![CDATA[
    .fil2 {fill:none}
    .fil3 {fill:#D2D3D5}
    .fil1 {fill:#D2D3D5}
    .fil0 {fill:#D2D3D5}
   ]]>
  </style>
   <clipPath id="id0">
    <path d="M122.41 21.13c-28.45,-7.91 -55.2,17.64 -50.34,47.44 5.58,25.03 37.25,40.11 67.39,22.37l0.77 -27.47 -25.7 -0.14 11.81 7.22 -0.27 12.79c-20.25,7.68 -33.26,-3.75 -33.78,-17.78 -0.31,-12.76 7.85,-20.53 17.04,-22.58l-23.83 -1.66c8.22,-13.22 20.29,-20.32 36.91,-20.19z"/>
   </clipPath>
 </defs>
 <g id="Capa_x0020_1">
  <metadata id="CorelCorpID_0Corel-Layer"/>
  <path class="fil0" d="M122.41 21.13c-28.45,-7.91 -55.2,17.64 -50.34,47.44 5.58,25.03 37.25,40.11 67.39,22.37l0.77 -27.47 -25.7 -0.14 11.81 7.22 -0.27 12.79c-20.25,7.68 -33.26,-3.75 -33.78,-17.78 -0.31,-12.76 7.85,-20.53 17.04,-22.58l-23.83 -1.66c8.22,-13.22 20.29,-20.32 36.91,-20.19z"/>
  <g style="clip-path:url(#id0)">
   <g id="_1985911095728">
    <path id="_1" class="fil1" d="M171.2 28l-20.08 3.79c-7.73,14.82 -8.52,28.91 1.01,41.93 -10.51,-16.49 0.48,-41.72 19.07,-45.72z"/>
   </g>
  </g>
  <path class="fil2" d="M122.41 21.13c-28.45,-7.91 -55.2,17.64 -50.34,47.44 5.58,25.03 37.25,40.11 67.39,22.37l0.77 -27.47 -25.7 -0.14 11.81 7.22 -0.27 12.79c-20.25,7.68 -33.26,-3.75 -33.78,-17.78 -0.31,-12.76 7.85,-20.53 17.04,-22.58l-23.83 -1.66c8.22,-13.22 20.29,-20.32 36.91,-20.19z"/>
  <path class="fil3" d="M90.22 88.83c-16.63,-29.13 14.39,-61.09 41.55,-38.39l9.71 -8.98c-15.47,-17.24 -41.47,-13.75 -55.98,-0.14 -8.34,13.23 -9.08,31.04 4.72,47.51z"/>
 </g>
</svg>
