<?xml version="1.0" encoding="UTF-8"?>
<!DOCTYPE svg PUBLIC "-//W3C//DTD SVG 1.1//EN" "http://www.w3.org/Graphics/SVG/1.1/DTD/svg11.dtd">
<!-- Creator: CorelDRAW (Versión de evaluación) -->
<svg xmlns="http://www.w3.org/2000/svg" xml:space="preserve" width="31mm" height="22mm" version="1.1" style="shape-rendering:geometricPrecision; text-rendering:geometricPrecision; image-rendering:optimizeQuality; fill-rule:evenodd; clip-rule:evenodd"
viewBox="0 0 29700 21000"
 xmlns:xlink="http://www.w3.org/1999/xlink"
 xmlns:xodm="http://www.corel.com/coreldraw/odm/2003">
 <defs>
  <style type="text/css">
   <![CDATA[
    .fil2 {fill:none}
    .fil3 {fill:#fff}
    .fil1 {fill:#fff}
    .fil0 {fill:#fff}
    .fil5 {fill:#fff;fill-rule:nonzero}
    .fil4 {fill:#fff;fill-rule:nonzero}
   ]]>
  </style>
    <clipPath id="id0">
     <path d="M8421.31 4925.05c-4003.72,-1117.84 -7692.07,2453.54 -6943.63,6629.63 838.86,3508.11 5310.65,5631.31 9492.11,3156.08l46.15 -3848.61 -3601.07 -27.72 1671.25 1015.7 -9.25 1791.28c-2820.01,1069.35 -4668.33,-536.08 -4773.73,-2502.24 -71.36,-1787.38 1053.06,-2872.6 2336.02,-3157.79l-3342.64 -240.05c1121.78,-1848.44 2796.47,-2839.18 5124.79,-2816.28z"/>
    </clipPath>
 </defs>
 <g id="Capa_x0020_1">
  <metadata id="CorelCorpID_0Corel-Layer"/>
  <g id="_1594918371840">
   <path class="fil0" d="M8421.31 4925.05c-4003.72,-1117.84 -7692.07,2453.54 -6943.63,6629.63 838.86,3508.11 5310.65,5631.31 9492.11,3156.08l46.15 -3848.61 -3601.07 -27.72 1671.25 1015.7 -9.25 1791.28c-2820.01,1069.35 -4668.33,-536.08 -4773.73,-2502.24 -71.36,-1787.38 1053.06,-2872.6 2336.02,-3157.79l-3342.64 -240.05c1121.78,-1848.44 2796.47,-2839.18 5124.79,-2816.28z"/>
   <g style="clip-path:url(#id0)">
    <g>
     <path id="_1" class="fil1" d="M15272.74 5902.92l-2803.96 524.47c-1049.46,2073.29 -1127.1,4047.41 236.52,5874.45 -1509.15,-2312.95 -26.93,-5843.71 2567.44,-6398.92z"/>
    </g>
   </g>
   <path class="fil2" d="M8421.31 4925.05c-4003.72,-1117.84 -7692.07,2453.54 -6943.63,6629.63 838.86,3508.11 5310.65,5631.31 9492.11,3156.08l46.15 -3848.61 -3601.07 -27.72 1671.25 1015.7 -9.25 1791.28c-2820.01,1069.35 -4668.33,-536.08 -4773.73,-2502.24 -71.36,-1787.38 1053.06,-2872.6 2336.02,-3157.79l-3342.64 -240.05c1121.78,-1848.44 2796.47,-2839.18 5124.79,-2816.28z"/>
   <path class="fil3" d="M4066.86 14399.11c-2397,-4086.68 1876.75,-8553.87 5733.9,-5364.58l1338.83 -1255.75c-2205.87,-2419.62 -5840.31,-1939.11 -7843.08,-37.44 -1137.94,1850.62 -1200.67,4345.32 770.35,6657.77z"/>
   <path class="fil4" d="M12365.7 14711.5l-816.69 0 0 -4502.55 816.69 0 0 4502.55zm5397.49 -411.56c0,58.94 -10.72,113.61 -31.08,163.98 -21.44,49.3 -50.38,93.24 -86.82,129.68 -36.44,36.44 -80.38,65.38 -130.76,86.82 -49.3,20.36 -103.96,31.08 -162.91,31.08l-2945.25 0c-75.02,0 -156.48,-8.57 -243.29,-26.79 -86.82,-17.15 -172.56,-45.02 -257.23,-83.6 -84.67,-37.52 -166.13,-85.75 -243.29,-145.77 -78.24,-58.94 -145.77,-131.82 -205.79,-216.49 -60.02,-84.68 -107.17,-183.28 -142.54,-294.74 -36.44,-112.54 -53.59,-239.01 -53.59,-378.34l0 -2211.09c0,-75.02 8.57,-156.47 26.79,-243.29 17.15,-86.81 45.02,-172.56 82.53,-257.23 37.51,-84.67 86.81,-166.12 147.91,-243.29 61.09,-77.17 132.9,-145.76 218.64,-205.78 84.67,-60.02 182.2,-107.18 293.67,-142.55 110.39,-36.44 235.79,-53.59 376.19,-53.59l3319.3 0 0 815.63 -3319.3 0c-107.18,0 -188.63,28.93 -244.36,85.74 -56.81,55.73 -85.75,139.33 -85.75,250.8l0 2204.65c0,103.96 28.94,185.42 86.82,243.29 57.87,56.81 138.26,85.74 243.29,85.74l2540.12 0 0 -1023.55 -2172.5 0 0 -822.05 2577.63 0c58.95,0 113.61,10.72 162.91,32.15 50.38,22.51 94.32,52.52 130.76,90.03 36.44,37.51 65.38,81.46 86.82,129.69 20.36,49.3 31.08,102.89 31.08,158.62l0 1840.25zm5293.52 0c0,58.94 -10.72,113.61 -31.08,163.98 -21.44,49.3 -50.38,93.24 -86.82,129.68 -36.44,36.44 -80.38,65.38 -130.76,86.82 -49.3,20.36 -103.96,31.08 -162.91,31.08l-2945.25 0c-75.02,0 -156.48,-8.57 -243.29,-26.79 -86.82,-17.15 -172.56,-45.02 -257.23,-83.6 -84.67,-37.52 -166.13,-85.75 -243.29,-145.77 -78.24,-58.94 -145.77,-131.82 -205.79,-216.49 -60.02,-84.68 -107.17,-183.28 -142.54,-294.74 -36.44,-112.54 -53.59,-239.01 -53.59,-378.34l0 -2211.09c0,-75.02 8.57,-156.47 26.79,-243.29 17.15,-86.81 45.02,-172.56 82.53,-257.23 37.51,-84.67 86.81,-166.12 147.91,-243.29 61.09,-77.17 132.9,-145.76 218.64,-205.78 84.67,-60.02 182.2,-107.18 293.67,-142.55 110.39,-36.44 235.79,-53.59 376.19,-53.59l3319.3 0 0 815.63 -3319.3 0c-107.18,0 -188.63,28.93 -244.36,85.74 -56.81,55.73 -85.75,139.33 -85.75,250.8l0 2204.65c0,103.96 28.94,185.42 86.82,243.29 57.87,56.81 138.26,85.74 243.29,85.74l2540.12 0 0 -1023.55 -2172.5 0 0 -822.05 2577.63 0c58.95,0 113.61,10.72 162.91,32.15 50.38,22.51 94.32,52.52 130.76,90.03 36.44,37.51 65.38,81.46 86.82,129.69 20.36,49.3 31.08,102.89 31.08,158.62l0 1840.25zm5268.87 411.56l-816.7 0 0 -1105.01 -2870.23 0 0 1105.01 -816.69 0 0 -2251.81c0,-327.96 56.8,-631.28 169.34,-906.73 113.61,-276.52 270.09,-514.45 471.58,-712.73 200.42,-199.35 438.36,-353.69 712.73,-465.15 274.38,-110.4 573.41,-166.13 898.16,-166.13l1840.24 0c55.73,0 109.32,10.72 159.7,31.08 50.37,21.44 94.31,50.38 131.83,87.89 37.51,37.51 67.52,81.45 87.88,131.83 21.44,50.37 32.16,103.96 32.16,160.77l0 4090.98zm-3686.93 -1921.7l2870.23 0 0 -1765.22 -1435.11 0c-25.73,0 -78.24,4.28 -158.63,11.79 -80.38,7.5 -173.63,25.72 -279.73,54.66 -105.04,28.94 -216.5,73.95 -334.4,135.04 -116.82,61.09 -225.07,144.69 -323.67,250.8 -97.54,107.18 -178.99,241.15 -243.3,400.84 -63.23,159.7 -95.39,353.69 -95.39,581.98l0 330.11z"/>
   <path class="fil5" d="M12433.43 9349.37c-40.01,-22.23 -48.91,-31.12 -53.35,-57.8 -2.23,-31.13 -2.23,-168.97 0,-233.44 0,-88.93 13.34,-108.94 55.58,-122.28l68.92 -15.56c8.89,-6.67 8.89,-66.7 2.22,-73.37 -46.69,0 -120.05,6.67 -269.01,6.67 -151.18,0 -289.02,-8.89 -355.71,-6.67 -6.67,6.67 -11.12,62.25 -2.23,73.37 64.48,11.12 106.72,11.12 146.73,22.23 64.48,17.79 75.59,53.36 77.82,126.73 4.44,68.92 2.22,164.51 -4.45,226.76 -2.22,26.68 -13.34,62.25 -35.57,75.59 -24.46,17.79 -73.37,26.68 -111.16,26.68 -322.37,0 -515.79,-282.35 -515.79,-669.19 0,-417.96 191.2,-586.93 449.09,-586.93 124.5,0 226.77,24.46 300.14,80.04 60.02,42.24 86.7,115.61 104.49,269.01 11.11,8.89 73.36,4.45 82.26,-8.89 0,-111.17 20.01,-291.25 40.01,-377.95 -113.38,-8.89 -257.89,-48.91 -453.53,-48.91 -193.42,0 -324.59,28.9 -444.65,82.26 -246.77,104.49 -397.95,333.48 -397.95,624.72 0,482.44 291.24,722.55 798.13,722.55 200.09,0 422.42,-60.03 506.9,-84.48 6.67,-6.67 11.11,-42.25 11.11,-51.14zm824.82 -820.37c-44.46,0 -91.15,22.24 -122.27,46.69 -46.69,37.8 -86.71,80.04 -131.17,131.17 -4.45,2.22 -13.34,2.22 -13.34,-4.45 0,-35.57 6.67,-142.28 8.89,-171.18 -2.22,-4.45 -8.89,-11.12 -15.56,-11.12 -77.82,44.46 -255.67,84.48 -340.16,91.15 -6.67,6.67 -11.11,46.69 -11.11,57.81 100.04,35.57 113.38,64.47 115.6,93.37 4.45,33.35 4.45,100.05 4.45,177.86 0,144.51 -2.22,311.25 -6.67,351.27 -2.22,44.46 -15.56,62.25 -35.57,68.92 -26.68,11.11 -57.8,15.56 -86.71,17.78 -8.89,8.9 -6.67,62.25 0,73.37 51.14,0 151.18,-6.67 244.56,-6.67 140.06,0 260.12,6.67 300.13,6.67 11.12,-11.12 15.57,-62.25 11.12,-73.37 -46.69,-4.44 -84.48,-8.89 -122.28,-20.01 -44.46,-11.11 -51.13,-31.12 -55.58,-88.92 -2.22,-33.35 -4.44,-313.48 -2.22,-440.2 0,-17.79 6.67,-37.8 13.34,-46.69 22.23,-26.68 53.36,-46.69 82.26,-46.69 60.02,0 120.05,40.02 166.74,86.71 4.44,2.22 22.23,-2.22 26.68,-6.67 31.12,-40.02 82.26,-151.18 88.93,-182.31 2.22,-11.11 2.22,-37.79 0,-44.46 -20.01,-37.79 -66.7,-60.03 -120.06,-60.03zm191.2 120.06c31.13,4.44 66.7,11.11 84.48,17.78 33.35,11.12 40.02,35.57 40.02,80.04 4.45,104.49 0,326.81 2.23,437.97 2.22,155.63 66.69,284.58 255.67,284.58 88.92,0 186.75,-46.69 295.68,-137.84 4.45,-4.45 11.12,0 11.12,4.44 0,31.13 4.45,97.82 8.89,122.28 2.23,6.67 8.9,15.56 15.57,17.79 44.46,-4.45 266.78,-60.03 351.26,-95.6 11.12,-13.34 13.34,-60.03 11.12,-75.59 -33.35,2.22 -60.03,2.22 -91.15,0 -31.13,-2.23 -40.02,-28.9 -42.24,-75.59l0 -466.88c0,-91.15 2.22,-191.2 4.44,-220.1 -62.25,13.34 -246.77,33.35 -413.52,33.35 -8.89,11.12 -13.33,51.14 -8.89,71.14 51.14,8.9 93.38,13.34 124.5,24.46 31.13,8.89 40.02,42.24 40.02,66.7 4.45,275.68 4.45,442.42 0,475.77 -2.22,13.33 -6.67,28.9 -17.79,40.01 -33.34,28.9 -82.25,46.69 -133.39,46.69 -91.15,0 -137.84,-46.69 -151.18,-104.49 -11.11,-42.24 -11.11,-115.61 -11.11,-242.33 0,-233.44 4.44,-349.05 13.34,-413.52 -95.6,24.45 -282.35,33.35 -380.18,35.57 -8.89,11.12 -13.33,55.58 -8.89,73.37zm1138.3 40.02c35.57,6.66 71.14,15.56 95.59,28.9 28.91,13.34 35.58,35.57 37.8,73.36 4.45,93.38 4.45,206.76 4.45,462.43 0,257.9 0,449.09 -4.45,522.46 -2.22,60.03 -11.12,91.15 -48.91,106.71 -26.68,11.12 -66.7,17.79 -106.72,26.68 -6.67,11.12 -2.22,62.25 4.45,73.37 162.29,-15.56 309.03,-28.9 524.68,-26.68l66.7 0c11.11,-11.12 17.78,-57.8 11.11,-73.37 -46.69,-6.67 -102.27,-11.11 -128.94,-17.78 -51.14,-11.12 -62.25,-37.8 -66.7,-88.93 -2.22,-66.7 -4.45,-211.21 -4.45,-297.91 0,-6.67 4.45,-11.12 8.9,-11.12 15.56,2.23 46.68,6.67 60.02,6.67 113.39,0 282.35,-48.91 393.51,-142.28 113.39,-93.38 184.53,-213.43 184.53,-402.41 0,-102.27 -31.13,-215.65 -106.72,-297.91 -53.35,-62.25 -133.39,-102.27 -226.76,-102.27 -84.49,0 -188.98,51.14 -300.14,126.73 -4.44,0 -11.11,-2.23 -11.11,-6.67 0,-40.02 2.22,-104.49 4.44,-126.73 0,-4.44 -15.56,-22.23 -20.01,-17.78 -88.93,44.46 -269.01,102.27 -366.83,117.83 -6.67,11.11 -8.89,55.58 -4.44,66.7zm531.35 2.22c68.91,0 126.72,24.45 175.63,84.48 48.91,62.25 73.37,155.63 73.37,269.01 0,117.83 -31.13,211.21 -77.82,264.56 -40.02,40.02 -86.7,53.36 -122.27,53.36 -46.69,0 -95.6,-8.89 -142.29,-46.69 -33.35,-26.68 -51.13,-71.14 -53.36,-115.6 -2.22,-86.71 -4.44,-371.28 -2.22,-431.31 2.22,-15.56 13.34,-33.35 24.45,-37.79 33.35,-26.68 86.71,-40.02 124.51,-40.02zm1173.85 -162.3c-115.6,0 -231.21,37.8 -306.8,88.93 -117.83,77.81 -197.87,206.76 -197.87,375.73 0,253.44 140.07,477.99 473.55,477.99 102.27,0 222.32,-40.02 289.02,-84.48 128.94,-80.04 204.53,-220.1 204.53,-400.18 0,-255.67 -166.74,-457.99 -462.43,-457.99zm-60.02 88.93c153.4,0 244.55,171.19 244.55,435.75 0,155.63 -24.45,249 -77.81,297.91 -24.46,22.24 -57.81,31.13 -91.15,31.13 -142.29,0 -246.78,-160.07 -246.78,-451.31 0,-168.97 37.79,-251.23 95.6,-291.25 22.23,-15.56 51.13,-22.23 75.59,-22.23z"/>
  </g>
 </g>
</svg>
